<?xml version="1.0" standalone="no"?>
<!DOCTYPE svg PUBLIC "-//W3C//DTD SVG 20010904//EN"
 "http://www.w3.org/TR/2001/REC-SVG-20010904/DTD/svg10.dtd">
<svg version="1.0" xmlns="http://www.w3.org/2000/svg"
 width="1024.000000pt" height="1024.000000pt" viewBox="0 0 1024.000000 1024.000000"
 preserveAspectRatio="xMidYMid meet">

<g transform="translate(0.000000,1024.000000) scale(0.100000,-0.100000)"
fill="#000000" stroke="none">
<path d="M4805 10230 c-1153 -71 -2203 -496 -3065 -1241 -253 -219 -549 -535
-746 -799 -529 -707 -866 -1531 -979 -2399 -22 -169 -22 -1176 1 -1346 112
-863 455 -1700 983 -2401 279 -372 660 -750 1039 -1032 541 -403 1159 -695
1812 -857 431 -106 790 -149 1245 -148 403 0 737 36 1108 119 1883 420 3379
1876 3846 3742 108 432 151 786 151 1252 0 802 -161 1513 -504 2225 -355 736
-892 1387 -1550 1878 -756 563 -1649 906 -2586 992 -208 19 -573 26 -755 15z
m-1490 -2251 c77 -29 155 -106 183 -182 21 -55 22 -73 22 -407 l0 -350 350 0
c408 0 420 -2 514 -93 159 -156 114 -417 -89 -518 -50 -24 -51 -24 -412 -27
l-362 -3 -3 -362 c-3 -361 -3 -362 -27 -412 -32 -63 -93 -124 -156 -156 -72
-35 -198 -35 -270 0 -63 32 -124 93 -156 156 -24 50 -24 51 -27 412 l-3 362
-362 3 c-361 3 -362 3 -412 27 -151 75 -223 250 -165 404 30 80 106 157 183
185 55 21 73 22 407 22 l350 0 0 350 c0 408 2 420 93 514 90 92 220 121 342
75z m4821 -971 c76 -40 107 -70 145 -140 31 -58 34 -70 33 -148 0 -73 -4 -93
-27 -137 -36 -69 -88 -120 -156 -152 l-56 -26 -1035 0 -1035 0 -56 26 c-68 32
-120 83 -156 152 -24 45 -28 64 -28 137 0 70 4 93 24 130 37 71 68 108 117
136 95 56 38 54 1149 51 l1030 -2 51 -27z m-979 -2390 c160 -59 244 -249 183
-412 -26 -69 -99 -148 -165 -178 -70 -32 -199 -32 -268 -1 -67 31 -141 110
-166 178 -98 260 155 511 416 413z m-4711 -254 c43 -15 88 -56 402 -368 l352
-350 353 351 c325 324 356 352 405 368 75 24 181 18 245 -15 104 -52 177 -168
177 -281 0 -133 6 -125 -384 -516 l-350 -353 350 -352 c390 -392 384 -384 384
-517 0 -118 -69 -224 -182 -281 -51 -25 -73 -30 -132 -30 -128 0 -136 6 -523
393 l-343 342 -347 -346 c-226 -225 -362 -352 -388 -365 -24 -11 -70 -20 -117
-22 -66 -3 -85 0 -131 21 -121 55 -197 166 -197 287 0 134 -6 126 384 518
l350 352 -350 353 c-390 391 -384 383 -384 516 0 122 74 231 194 287 62 29
158 32 232 8z m5671 -706 c160 -60 244 -249 182 -413 -25 -68 -99 -147 -166
-178 l-48 -22 -1045 0 -1045 0 -50 25 c-202 99 -248 359 -91 516 34 33 71 58
106 72 55 21 64 21 1077 21 l1022 1 58 -22z m-960 -960 c160 -59 244 -249 183
-412 -26 -69 -99 -148 -165 -178 -70 -32 -199 -32 -268 -1 -67 31 -141 110
-166 178 -98 260 155 511 416 413z"/>
</g>
</svg>
